/* XPM */
static char *sm4Id901692560317[] = {
/* columns rows colors chars-per-pixel */
"75 100 136 2 ",
"   c None",
".  c #000000",
"X  c #0C0003",
"o  c #050708",
"O  c #060809",
"+  c #090C0D",
"@  c #120103",
"#  c #1B0100",
"$  c #130009",
"%  c #1B000C",
"&  c #0D1214",
"*  c #111719",
"=  c #12191C",
"-  c #240200",
";  c #2D0200",
":  c #340300",
">  c #3C0300",
",  c #38020A",
"<  c #250111",
"1  c #2B0113",
"2  c #320116",
"3  c #380114",
"4  c #350118",
"5  c #3C011B",
"6  c #161E21",
"7  c #172023",
"8  c #192326",
"9  c #1C272A",
"0  c #1D292D",
"q  c #1F2C31",
"w  c #222F34",
"e  c #27363C",
"r  c #28373C",
"t  c #29383D",
"y  c #450300",
"u  c #490400",
"i  c #540400",
"p  c #5C0500",
"a  c #5B030E",
"s  c #43011E",
"d  c #55021E",
"f  c #630500",
"g  c #6B0500",
"h  c #720600",
"j  c #7C0600",
"k  c #470120",
"l  c #4B0122",
"z  c #540126",
"x  c #5C0129",
"c  c #65022E",
"v  c #68022F",
"b  c #720323",
"n  c #6C0231",
"m  c #730234",
"M  c #7A0237",
"N  c #7B0238",
"B  c #2C3D43",
"V  c #33464D",
"C  c #364A52",
"Z  c #384C54",
"A  c #3C525A",
"S  c #425B64",
"D  c #455F69",
"F  c #47626B",
"G  c #48636D",
"H  c #4B6772",
"J  c #4D6A75",
"K  c #53727C",
"L  c #840700",
"P  c #8B0700",
"I  c #930700",
"U  c #970800",
"Y  c #9C0800",
"T  c #9D061E",
"R  c #A30800",
"E  c #AC0900",
"W  c #B30900",
"Q  c #BC0902",
"!  c #B5080C",
"~  c #B90909",
"^  c #A60716",
"/  c #A90715",
"(  c #AE0811",
")  c #A2061A",
"_  c #B00811",
"`  c #86032E",
"'  c #8B042B",
"]  c #930525",
"[  c #990521",
"{  c #910429",
"}  c #820331",
"|  c #C60A00",
" . c #C90A00",
".. c #567682",
"X. c #587985",
"o. c #5B7D89",
"O. c #5F828F",
"+. c #5F8491",
"@. c #618592",
"#. c #648A97",
"$. c #668B99",
"%. c #6C95A3",
"&. c #719BAA",
"*. c #74A0AF",
"=. c #76A2B2",
"-. c #79A6B6",
";. c #7CABBB",
":. c #82B3C3",
">. c #89B7C7",
",. c #86B9CB",
"<. c #88BCCE",
"1. c #8BBFD1",
"2. c #8EC3D5",
"3. c #8FC5D8",
"4. c #9FC8D6",
"5. c #90C6D9",
"6. c #92C9DC",
"7. c #9ACDDF",
"8. c #94CCE0",
"9. c #9ECFE0",
"0. c #9CD0E2",
"q. c #A4D2E2",
"w. c #ACD6E5",
"e. c #B1D9E6",
"r. c #BBDEEA",
"t. c #C0E0EB",
"y. c #CBE5EF",
"u. c #CAE7F1",
"i. c #D3EAF2",
"p. c #D9ECF3",
"a. c #DEF0F6",
"s. c #E1F1F6",
"d. c #E3F3F8",
"f. c #EBF5F9",
"g. c #F4F9FB",
"h. c #FEFFFF",
/* pixels */
"                                                                                                                                                      ",
"                                                                                                                                                      ",
"                                                                                                                                                      ",
"                                                                                                                                                      ",
"                                                                                                                                                      ",
"                                                                                                                                                      ",
"                                                              . . . . . . . . . . . . . . . . .                                                       ",
"                                                          . . . . . . . . . . . . . . . . . . . . . .                                                 ",
"                                                      . . . . . . . . . . . . . . . . . . . . . . . . . .                                             ",
"                                                    . . . . . . . . . . . . . . . . . . . . . . . . . . . . .                                         ",
"                                                  . . . . . . . X # - : : > : ; - - # X X . . . . . . . . . . .                                       ",
"                                              . . . . . . . X y P W Q Q | | Q Q Q W E R I g u - X . . . . . . . .                                     ",
"                                              . . . . . . ; P | | |  .| | | |  . .|  . . . .| W P i # . . . . . . . .                                 ",
"                                            . . . . . X i W  .| | | | | | | | | | | | | | | |  . .| E f @ . . . . . . .                               ",
"                                            . . . . X g Q  .| | | | | | | | | | | | | | | | | | | |  .| U - . . . . . .                               ",
"                                          . . . . X f | | | | | | | | | | | | | | | | | | | | | | | | |  .Y - . . . . . .                             ",
"                                          . . . . 3 ! | | | | | | | | | | | | | | | | | |  .| |  .| |  .|  .R - . . . . . .                           ",
"                                          . . . X b | | | | | | | | | | | |  . . . .| | Q W W W W E R R U I I f X . . . . . .                         ",
"                                        . . . . 2 ] | | | | | | | | | |  .| R L h f u y : - # # # @ X X X X X X . . . . . . .                         ",
"                                        . . . X x /  .| | | | | | |  .| Y y X X . . . . . . . . . . . . . . . . . . . . . . . .                       ",
"                                        . . . % M ! | | | | | | | | | h @ . . . . . . . . . . . . . . . . . . . . . . . . . . .                       ",
"                                      . . . . 4 ` ~ | | | | | | | Q i X . . . . . . . . . o & 6 9 9 9 9 8 * + . . . . . . . . . .                     ",
"                                      . . . . l { | | | | | | | | u . . . . . o & 9 B A K $.-.>.,.,.<.,.,.:.&.+.S q + . . . . . . .                   ",
"                                      . . . X c [ | | | | | |  .P X . . . . 9 @.;.<.6.6.8.6.6.6.w.y.i.i.i.p.i.u.r.4.&.F 9 . . . . . .                 ",
"                                      . . . $ n T  .| | | | | | y . . . . = J 2.8.7.6.6.6.6.6.t.g.h.h.h.h.h.h.h.h.g.d.r.>.J = . . . . .               ",
"                                    . . . . % M ^ | | | | |  .W # . . . O Z H :.6.6.6.6.6.5.q.g.h.h.h.h.h.h.h.h.h.h.h.h.a.q.-.t . . . .               ",
"                                    . . . . 4 N /  .| | | |  .R @ . . . 9 F G &.6.6.6.6.6.5.w.h.h.h.h.h.h.h.h.h.h.h.h.h.h.d.0.:.e . . . .             ",
"                                    . . . . l N ^ | | | |  . .Y X . . . B G F O.5.6.6.6.6.6.8.s.h.h.h.h.h.h.h.h.h.h.h.h.h.g.q.8.=.* . . .             ",
"                                  . . . . X x N / | | | | |  .Y X . . o Z G F K 1.6.6.6.6.6.6.9.y.p.s.f.g.g.h.g.h.h.h.h.h.s.7.6.6.S . . . .           ",
"                      . . . . . . . . . . X c M /  .| | | |  .Y X . . o A F G G -.6.6.6.6.6.6.6.6.6.6.7.0.q.e.e.e.e.e.r.r.7.6.6.6.%.O . . .           ",
"                  . . . . . . . . . . . . $ n M ^ | | | | |  .R X . . O A G G F @.5.6.6.6.5.6.6.6.6.6.6.6.6.5.6.5.5.5.5.6.6.6.6.6.>.6 . . .           ",
"                . . . . . . . . . . . . . % M M / | | | | |  .R X . . o A G G G H =.6.6.6.6.6.6.6.6.6.6.6.6.6.6.6.6.6.6.6.6.6.6.3.&.7 . . . .         ",
"              . . . . . . . . . . . . . o < m M ^ | | | | | | E # . . o C G G G F J -.3.8.6.6.6.6.6.6.6.5.6.6.6.6.6.6.6.6.6.2.:.@.G * . . . .         ",
"            . . . . . X u h h h g # . . . 1 M M )  .| | | | | Q - . . . t G G G G F H $.:.2.5.6.6.5.3.5.3.5.5.2.1.,.:.;.&.$.X.H G A + . . . .         ",
"            . . . . . f |  . . .Q - . . . 1 M M ] | | | | | | | > . . . 6 S G G G F G F H X.+.@.@.@.o.o.o.o.o...K J J G F F F G G B . . . . .         ",
"            . . . . - W | | | | E # . . . 1 M M { | | | | | |  .f . . . . V G G G G G G F F F F G D F F G D F F G F G G G G G G D * . . . .           ",
"            . . . . y | | | |  .E # . . . 1 M M ' | | | | | |  .L X . . . + C G G G G G G G G F G G G G G G G G G G G G G G G D 0 . . . . .           ",
"          . . . . . f  .| | |  .R @ . . . 1 N M ` | | | | | | | E # . . . . + V F F F G G G G G G G G G G G F G F G G F G G A 6 . . . . . .           ",
"          . . . . X P  .|  .| | Y X . . . 3 M N M ~ | | | | | | | p . . . . . o t F G F F G G G G G G G G G G G G G H G S t + . . . . . .             ",
"          . . . . @ R | _ ) [ { b X . . . 3 M N N ! | | | | | |  .E - . . . . . . 7 Z F H G G F G G G D G G G H F D Z w + . . . . . . .               ",
"          . . . . ; ^ ` M M M M c X . . . 2 M M M / | | | | | | |  .L X . . . . . . o 7 B A S F F F F F S A V B 0 * o . . . . . . . .                 ",
"          . . . . , ` M M M M N x . . . . 5 M M M )  .| | | | | | | | h X . . . . . . . . O & = 8 9 8 * & O . . . . . . . . . . . . .                 ",
"          . . . . 4 M M M M M M z X . . . 5 M M M ] | | | | | | | |  .| j @ . . . . . . . . . . . . . . . . . . . . . . . @ X . . . .                 ",
"          . . . . 5 N M M M M M z . . . . 5 N M N ' | | | | | | | | | | | Y y X . . . . . . . . . . . . . . . . . . X - i Y > . . . .                 ",
"          . . . . s M M M M N N z . . . . 5 M M M ` | | | | | | | | | | |  .| I y @ X . . . . . . . . . . X X - u g Y W  . .i . . . .                 ",
"          . . . . l M M M M N N z . . . . 5 M M N N ! | | | | | | | | | | | |  .| E j i : # X X X # ; u f P R Q |  . . . . .a . . . .                 ",
"          . . . . l N M M M M N z X . . . 5 M M M M ( | | | | | | | | | | | | | | | | | | W Y U Y E Q |  . . . .| | | |  .~ z . . . .                 ",
"          . . . . x N M M M M N l . . . . 5 M M M M )  .| | | | | | | | | | | | | | | | | |  . . .| | | | | | | | | | | | ( z X . . .                 ",
"          . . . X z N M M M M N k . . . . 5 N M M M { | | | | | | | | | | | | | | | | | | | | | | | | | | | | | | | | |  .) x . . . .                 ",
"          . . . X x M N M M M N k . . . . 5 N M M N ` Q | | | | | | | | | | | | | | | | | | | | | | | | | | | | | | | | | { x X . . .                 ",
"          . . . X c N M M M M N s . . . . 5 N M M M M ~  .| | | | | | | | | | | | | | | | | | | | | | | | | | |  .| | | | } x X . . .                 ",
"          . . . X v N M M M M N s . . . . 5 N M M M M ^ | | | | | | | | | | | | | | | | | | | | | | |  .| | | | | | | | _ M c X . . .                 ",
"        . . . . $ n N M M M M N s . . . . 5 N M M M M { | | | | | | | | | | | | | | | | | | | | | | | | | | | | | | | | ) N v X . . .                 ",
"        . . . . $ n N M M M M N 5 . . . . 5 N M M M M M ~ | | | | | | | | | | | | | | | | | | | | | | | | | | | | | | | [ M v X . . .                 ",
"        . . . . X n N M M M M M 2 . . . . 5 N M M M M N )  .| | | | | | | | | | | | | | | | | | | | | | | | | | | | | | } N c X . . .                 ",
"        . . . . $ n M M M M M N 4 . . . . 5 N M M M M N ` ~  .| | | | | | | | | | | | | | | | | | | | | | | | | | | | ! } N c X . . .                 ",
"        . . . . X n M M M M M M 2 . . . . 5 N M M M M M N ^ | | | | | | | | | | | | | | | | | | | | | | | | | | | | | ) N N v X . . .                 ",
"        . . . . X c M M M M M N 4 . . . . 5 N M M M M M N ` Q  .| | | | | | | | | | | | | | | | | | | | | | | | | | | { M N v X . . .                 ",
"          . . . o c M M M M M N 4 . . . . s N M M M M M N N T | | | | | | | | | | | | | | | | | | | | | | | | | |  .! } M M c X . . .                 ",
"          . . . . z M M M M M N 5 . . . . 5 N N M M M M M N N (  .| | | | | | | | | | | | | | | | | | | | | | | | ~ ' M M M x o . . .                 ",
"          . . . . z N M M M M N 5 . . . . s N M N M M M M M M ` ! | | | | | | | | | | | | | | | | | | | | | | | ~ ' M M M N x X . . .                 ",
"          . . . . l N M M M M N k . . . . 5 N M M M M M M M M M } ^ ! | | | |  .| | | | | | | |  .| |  .| | ~ ) } N M M M N z . . . .                 ",
"          . . . . s N M M M M N s . . . . s N M M M M M M M M M M N } ' [ / ! Q | | | | | | | | ~ ~ _ ^ [ ` } M M M M M M N k . . . .                 ",
"          . . . . 3 N M M N N N k . . . . k N M M M M M M M M M M N N N N N } } ' { { ] { { { ' ` N N M M M M M M M M M M M 5 . . . .                 ",
"          . . . . < M M M M N N z . . . . k N M M M M M M M M M M M M M M M M N N N m N M M M N N N N M M M M M M M M M M M 1 . . .                   ",
"            . . . $ m M M M N N z . . . . k N M M M M M M M M M M M M M M M M M N M N N M M M M N N M M M M M M M M M M M m % . . .                   ",
"            . . . X x N M M M N z . . . . s N N M M M M M M M M M M M M M M M M M M N N M M M M N N N M M M M M M M M M M n $ . . .                   ",
"            . . . . % x M M M N x . . . X s N N M M M M M M M M M M M M M M M M M M M M M M M M N m N M M M M M M M M M M c X . . .                   ",
"              . . . . X s c n n z X . . . l N N M M M M M M M M M M M M N N N M M N N N N N N M M M M M M M M M M M M M N z . . . .                   ",
"              . . . . . . X $ $ X . . . . l N N M M M M M M M M M M M M M c 5 1 1 5 l x c n n m m M m m n m n v M M M M N k . . . .                   ",
"                . . . . . . . . . . . . . s N N M M M M M M M M M M M M x $ . . . . . X X $ $ % $ % % % % $ $ 1 n M M M N 5 . . .                     ",
"                  . . . . . . . . . . . . s N N M M M M M M M M M M M M 4 . . . . . . . . . . . . . . . . X 5 n M M M M M < . . .                     ",
"                    . . . . . . . . . . . s N M M M M M N M M M M M M M < . . . . . . . . . . . . . . . % x M M M M M M n $ o . .                     ",
"                                    . . . k N M M M M M N N M M M M M m % . . . . . . . . . . . . . $ k n M M M M M M M v X . . .                     ",
"                                    . . . s N M M M M M M M M M M M M m $ . . . .         . . . X 5 v M M M M M M M M N x . . . .                     ",
"                                    . . . s M M M M M M M M M M M M M m $ . . . .         . . . 2 M M M M M N M M M M N k . . .                       ",
"                                    . . . 5 M M M M M M M M M M M M M n $ . . . .         . . . 4 M M M M M M M M M M M 4 . . .                       ",
"                                    . . . 4 M M M M M M M M M N M M M n $ . . . .         . . . 2 M M M M M M N M M M M < . . .                       ",
"                                    . . . 1 M M m N M M M M M M M M M n X . . . .         . . . < N M M M M M M M M M m % . . .                       ",
"                                    . . . < m M N N M M M M M M M M M n X . . . .         . . . $ m M M M M M M M M N n X . .                         ",
"                                    . . . % M M M M M M M M M M M M M n X . . . .         . . . X x N M M M M M M M M x X . .                         ",
"                                    . . . X n M M M M M M M M M M M M n X . . . .         . . . . s N M M M M M M M M l . . .                         ",
"                                    . . . . l N M M M M M M M M M M M n $ . . . . . . . . . . . . % n n m m m n n n z $ . . .                         ",
"                                      . . . % n M M M M M M M M M M M l X . . . . . . . . . . . . X $ % $ % % % $ $ X . . .                           ",
"                                . . . . . . . 4 n N M M M M N M M m s X . . . . . . . . . . . . . . . . . . . . . . . . . . . .                       ",
"                          . . . . . . . . . . . $ k c M N M m n l < . . . . . . . . . . . . . . . . . . . . . . . . . . . . . . . . .                 ",
"                      . . . . . . . . . . . . . . . X % < < < $ . . . . . . . . . . . . . . . . . . . . . . . . . . . . . . . . . . . . .             ",
"                    . . . . . . . . . . . . . . . . . . . . . . . . . . . . . . . . . . . . . . . . . . . . . . . . . . . . . . . . . . . .           ",
"                    . . . . . . . . . . . . . . . . . . . . . . . . . . . . . . . . . . . . . . . . . . . . . . . . . . . . . . . . . . . .           ",
"                    . . . . . . . . . . . . . . . . . . . . . . . . . . . . . . . . . . . . . . . . . . . . . . . . . . . . . . . . . . . .           ",
"                        . . . . . . . . . . . . . . . . . . . . . . . . . . . . . . . . . . . . . . . . . . . . . . . . . . . . . . . . .             ",
"                            . . . . . . . . . . . . . . . . . . . . . . . . . . . . . . . . . . . . . . . . . . . . . . . . . . . .                   ",
"                                  . . . . . . . . . . . . . . . . . . . . . . . . . . . . . . . . . . . . . . . . . . . . . .                         ",
"                                            . . . . . . . . . . . . . . . . . . . . . . . . . . . . . . . . . . .                                     ",
"                                                                    . . . . . . . . . . . .                                                           ",
"                                                                                                                                                      ",
"                                                                                                                                                      ",
"                                                                                                                                                      ",
"                                                                                                                                                      ",
"                                                                                                                                                      "
};
