/* XPM */
static char *_89687f35a7f4a47bfcc4b10e9636368VY1c9U4yHNMWm4uW[] = {
/* columns rows colors chars-per-pixel */
"100 67 207 2 ",
"   c #2D1B0F",
".  c #351F14",
"X  c #281B15",
"o  c #3B200D",
"O  c #2C221C",
"+  c #2E2A1E",
"@  c #34251C",
"#  c #3B271B",
"$  c #36281D",
"%  c #3A291F",
"&  c #362416",
"*  c #2E2522",
"=  c #2A2B27",
"-  c #2E2E2D",
";  c #312624",
":  c #342C24",
">  c #3B2D24",
",  c #332D2C",
"<  c #3B2E29",
"1  c #2E312D",
"2  c #32312E",
"3  c #3B332D",
"4  c #3B392F",
"5  c #2E2E31",
"6  c #312E31",
"7  c #382F30",
"8  c #2F3131",
"9  c #333232",
"0  c #3B3532",
"q  c #373833",
"w  c #3D3935",
"e  c #393738",
"r  c #353938",
"t  c #3D3B39",
"y  c #402713",
"u  c #432C1C",
"i  c #4C2F1F",
"p  c #4A331D",
"a  c #432D23",
"s  c #422E2A",
"d  c #453226",
"f  c #4A3225",
"g  c #42342C",
"h  c #4B352D",
"j  c #45382E",
"k  c #4D3A2D",
"l  c #533827",
"z  c #52352B",
"x  c #533A2E",
"c  c #5B3C2C",
"v  c #503426",
"b  c #423632",
"n  c #4A3533",
"m  c #443B34",
"M  c #4A3C35",
"N  c #443D3A",
"B  c #4A3E3A",
"V  c #523631",
"C  c #533E33",
"Z  c #5A3C33",
"A  c #523E3B",
"S  c #5C3D38",
"D  c #603F36",
"F  c #55422F",
"G  c #474036",
"H  c #4C4137",
"J  c #45413C",
"K  c #4C423C",
"L  c #4C483D",
"P  c #544336",
"I  c #5C4335",
"U  c #52453D",
"Y  c #5B463C",
"T  c #54493E",
"R  c #5B4A3E",
"E  c #63422D",
"W  c #634534",
"Q  c #644935",
"!  c #604539",
"~  c #6A453C",
"^  c #624B3D",
"/  c #6B4D3C",
"(  c #744A39",
")  c #65503D",
"_  c #6D513E",
"`  c #75523E",
"'  c #464542",
"]  c #4C4542",
"[  c #4D4A44",
"{  c #524641",
"}  c #5A4741",
"|  c #554A43",
" . c #5B4C44",
".. c #554C49",
"X. c #5B4E49",
"o. c #545043",
"O. c #5C5046",
"+. c #55524C",
"@. c #5D524A",
"#. c #5E5551",
"$. c #5E5953",
"%. c #614440",
"&. c #624E44",
"*. c #6B4D41",
"=. c #634E4A",
"-. c #7D4E44",
";. c #635146",
":. c #6C5345",
">. c #6B5847",
",. c #63544C",
"<. c #69564C",
"1. c #65594E",
"2. c #6A594E",
"3. c #715443",
"4. c #7C5541",
"5. c #755846",
"6. c #7A5B47",
"7. c #72564A",
"8. c #79574E",
"9. c #725A4B",
"0. c #7A5B4B",
"q. c #635651",
"w. c #695752",
"e. c #655A52",
"r. c #6C5C53",
"t. c #655D59",
"y. c #6C5E59",
"u. c #715E54",
"i. c #7A5E51",
"p. c #715F58",
"a. c #5F605B",
"s. c #73604F",
"d. c #7F604E",
"f. c #6D6156",
"g. c #6E625A",
"h. c #736255",
"j. c #7A6255",
"k. c #74645B",
"l. c #79665C",
"z. c #75685D",
"x. c #7B6A5D",
"c. c #6E6661",
"v. c #6B6864",
"b. c #746661",
"n. c #7B6760",
"m. c #766A62",
"M. c #7C6C63",
"N. c #7D6D69",
"B. c #767266",
"V. c #7E7066",
"C. c #7E7169",
"Z. c #7D7371",
"A. c #80584E",
"S. c #82574E",
"D. c #815B52",
"F. c #83604C",
"G. c #826253",
"H. c #8A6754",
"J. c #866158",
"K. c #816E5F",
"L. c #8C6E5B",
"P. c #866657",
"I. c #966D5B",
"U. c #816E64",
"Y. c #8C6F67",
"T. c #806F69",
"R. c #837265",
"E. c #897364",
"W. c #867369",
"Q. c #84746B",
"!. c #88776C",
"~. c #85786E",
"^. c #8B796E",
"/. c #937362",
"(. c #94766A",
"). c #967C6D",
"_. c #9A7563",
"`. c #837672",
"'. c #897671",
"]. c #857972",
"[. c #8C7C73",
"{. c #8C7D7B",
"}. c #917E75",
"|. c #907F78",
" X c #9D7D72",
".X c #96816E",
"XX c #8D8076",
"oX c #8E8179",
"OX c #928176",
"+X c #94847B",
"@X c #99877D",
"#X c #95897E",
"$X c #9A897E",
"%X c #9B8476",
"&X c #A18373",
"*X c #A78A7A",
"=X c #868580",
"-X c #8F8C87",
";X c #978981",
":X c #9C8C82",
">X c #948A88",
",X c #9A9087",
"<X c #A08E86",
"1X c #A08F88",
"2X c #A59589",
"3X c #A9978D",
"4X c #AA998F",
/* pixels */
"6 6 6 - 8 8 1 1 r 1 1 q 1 q q ' r r t ' ' ' e.{ U C =.w.'.{.N.=.=.u.u.i.W.i.;.z.Q.Q.,.| L T G #.+.J v.+.N ] t...U U T U G L : z.W.j.R.s.R ) ;.K.j.>.x.) ) >.z.j.d.j.i.<.^ =. .A q.{ | =.w.q.=.l.w.A n R ",
"6 6 6 - 1 8 1 1 1 1 1 1 q q ' [ t N t ' B ] 1.=.h M B =.Q.k.y.T.|.n.E.@X}.!.OX+X;X#Xk.f.$.z.$.+.v.a.=X-X#.] H { T | K U ,.G + Z.z.x.j.F F z.K.2.s.;.;.R ;.;.) ;.^ :.>.;.Y A A  .b.q.w.=.X. .Y r.u. .B P ",
"6 6 - 6 8 8 1 1 1 1 1 1 1 1 q t N { b b B P ;.<.Y u.C &.W.k.k.+X'.T.}.$X'.W.W.h.z.M.g.@.L f.$.+.$.+.a.v...g.| < P U ,.t.O.L 4 V.x.V.x.f.@.r.x.f.P ) 1.s.2.R k ,.;.:.R P U m b  .G L @.$.,.,.| X.k.,.,.=.",
"6 6 - - 8 8 1 1 1 1 = = = = 1 4 B A h a n x C &.W i.f C j.x.E.R.Y.:XT.Y  .1.;.H n T O.q.T z.C.C.v.o.' o.#.{.p.; {  .{.'.T f.C.z.x.z.V.#X!.R ,.>.O.f.z.R.g.R $ ) x.j.R P 1.@.| t.m G o.1.k.b.@.T ;.;.;. .",
"6 6 - 6 6 6 1 1 1 1 1 = 1 q q m s V h a z z v I c I o y p u F u P 2.R $ >  .T m U M M  .K q.w.q.#.2 m B #.y.q.B A B n.p.K k.#Xf.e.f.z.~.C.f.f.G T o.T ,.,.O.> T z.z.) L f.f.$.$.G J @.@.f.m.f.f.,.q.=. .",
"6 6 - 5 9 9 1 1 1 1 1 2 : 2 0 4 s V Y S I *.W / j.5.3.3._ p ) ) x.2.V.M.R | R O H H B { g M b M | w m @ j B ..A n s g g @.f.m.f.f.g.g.B.g.f.f.@.| o.K m j G w O.>.B.z.1.,.O.o.T j L f.+.o.o.L ,.y.l.p.X.",
"6 5 - 6 9 9 8 - = 1 1 = , 9 2 : n h &.^ %.:.:.7.Q W 6./ H.E 6.L.XXh.[.#XM.].,X~.< X.q.y.X.r.p.T.~.].m.m < | =.}  .A g U R.z.k.V.B.f.B.B.f.L | g.g.B.C.L 3 j o.$.B.XXB.B.g.1.$.@.o.$.g.f.o.G > 3  .h.p.,.",
"5 6 6 6 9 8 1 - = 1 1 , 3 0 0 3 < # U B h } ^ ^ W :.j.i d.F c E R 1.h.f.y.g.g.@.< ,.=.=.,.n.r.y.k.M.n.e.b P A q. .{ q.h.Q.y.V.z.B.#.g.g.+.[ m ..G | $.: 3 L g.f.B.s.f.z.z.f.e.f.f.O.$.$.f.r.=.q.U l.M.k.",
"- 5 - 5 9 8 1 - = = = 2 3 3 0 N G w L @.4 g n P &.v *.7.*.8.D._.s.x P >.j U  .q.q.`.z.y.r.,.u.%.2. .Y  . .w.b.A w.N.p.T.;XA X.~.C.o.$.v.| G L H G @.| { w $.t.t.B.g.h.z.N.n.n.n.h.u.p.l.p.u.n.}.'.n.p.p.",
"5 - - 1 1 9 1 - 9 - , 2 2 , , , G q 4 G 4 m b j n V U.Y.i.8.J. X.X^ k & > j ;.C.N.{.Q.;.Y <.<.8.l.j. .& } w.y.{ A {.T.k.'.T.W.k.Z.g.g.B.+.G J H f.t.G N G e.e.#.z.f.f.k.n.n.l.k.k.p.n.n.p.p.l.T.W.k.y.h.",
"5 - - 5 8 9 1 = 9 1 , 2 0 7 b b 3 J 4 4 : 3 3 b n > Y =.%.S Z S d.Q f # a a > ,.=.} X.h C ^ x I I R =.% w.=.B q.#.{.Z.N.C.[.[.r.m.c.g.g...U H U [ b 4 3 @.m.N.g.b.r.w.y.l.n.l.k.i.l.U.x.x.l.z.x.M.h.h.l.",
"6 5 - - 8 1 1 - - 2 2 3 n N B ] N O.M g : m 2 H | n s n A S C z 3.F.s.).&.9.A k.[.w.A h ^ 5.I I :.^ j.2.T.X.X n N.`.b.{.C.R.x.2.g.N.m.,.,.X...O.O.|  .M @.g.C.z.T.k.y.r.r.r.i.u.w.p.i.i.x.N.n.k.n.y.k.n.",
"6 5 - - 5 9 - 1 6 , 6 7 0 b N n Y R > ; < A < < g b n B H k  .9.3.F.I.*XI j.n.4X:Xi.% f :.i./.*X.XE.XXOXOX:X{ : g.Z.Z.XXz.C.m.O.u.m.k.A ,.U |  .H T U @ B r.'.V.b.c.g.t.1.;.;.) &.<.s.h.h.z.k.f.h.w.h.z.",
"6 5 - - - 8 2 - , 6 7 7 7 b b n S D v f a n g B < ] U K G < H >.E E H.L.c I j.!.[.x.x I ! l ^ ` _ F ;.R.r.~.X.4 [ v.Z.Z.m.M.h.O.,.u.k.M &.U =.X.k.r.} > h } =.n { { | @.q.;.@.R &.<.2.s.h.r.1.1.q.=.,.y.",
"5 5 = 5 1 8 , 1 = 6 7 7 b N ] A ~ -.S.D.c V I ,.,.g.X.[ L 4 L 2.` ( I._./.i.*.C U ;.*.) >._ Q Q ) F ) x. .X...[ [ $.B.XXZ.f.1.2.<.N.U.p.=.w.i.M.w.<.} } ,.p.<. .e , 3 m ..@.1.>.2.2.h.z.k.f.$.f.X.R =.2.",
"5 5 5 = - 8 8 , - 0 7 7 7 N B n ~ -.S.D.Z z n Y | ,.4 $ + + o.x.6.4.4.I. X(.f . a k A # f 9.^ ^ P ) F G < M @.] t.m.oXB.XXf.2.2.=.Y.U.T.I :.,.J.<.&.C *.&.<.;.f.] 2 O ; G O.,.1.u.2.k.Q.C.f.2.g.,. .@.;.",
"5 5 6 8 6 9 9 6 9 9 2 m t N N {  .&.>.h.h h H R X.l.T X.U n  .U.5.d.L.G.3.%XZ & h g g < n | @.| T @.j > $. .f.g.c.`.`.m.g.r.t.r.T .Xs.9.3.j.j.` _ 5./ 9.F P ;.2.T 3 > @ j g T r.V.z.z.C.M.r.e.f.,.,. . .",
"5 6 5 6 9 8 9 9 9 , 2 0 w 0 t J U n G ,.H M H  . .y.,.k.r.2.w.U.5.5.5.:.! U.;.;.r.T { b.`.Z.`.>XoXXX1.L N.~.#XXXg.~.].C.m.r.@.O.) E.K.j.0._.H.H.4./ W Q ) ;.j.s.2.O.| M M > U k.V.Q.C.n.g.r.w.h.r.f.g.g.",
"8 9 8 6 9 9 9 9 q 9 2 0 0 0 w N | m < m g m j j b j b {  .w. .R % i u u f C ^ k.k.} U e.c.#.q.m.z.z.R M N.XXoXM.r.m.C.N.m.1. .O.) x.^.s.>.L.6.H.( _ _ I I f R R ;.O.1.T H d  .m.z.M.M.f.,.1.2.1.1.r.z.m.",
"8 8 8 e 9 9 9 9 0 9 0 0 w t w t | G 4 > : m b > M > g s j  .K U I ) R ! ^ k &.k.r. .M j m 0 3 4 3 N d 3 e.C.N.,.@.e.r.z.g. .U ,.T j.j.I I 3./ 5.I _ :.W I f C x h g M g > >  .r.r.e.1.,.,.@.O. .H |  .,.",
"5 9 5 9 9 9 q 9 e e 0 0 t t t 0 N b b 0 H m m m n 7 ..A A ..X.y.=.h.:.2.<.Y r.r. .=.U n j B M j j M n K O.f.e.,.O.,.e.g.r.| H  .P f.R d h I 7.:.c *.c ^ =.i.<.&.R m H > @ $  .g.z.,. .,.r.,.O.X.M M M H ",
"8 5 1 9 9 9 q 9 9 q 0 9 0 t N e K 4 w ..#., @ 4 7 ; b { y.b.N.Z.k.U.l.W.x.W.%X!.u.r.r.2.=.P n h  .O.t.z.g.m.e.r.g.z.V.Q.C.,.{  .L z.o.j P C 9.:.! 7.x S *.p.<.u.w. .,.M @ & ,.m.~.g.,.f.k.r.1.e.@.| H P ",
"5 5 5 9 6 9 9 9 q q 0 0 N ' N t [ N N ] t.b , , n 6 ; B `.Z.`.{.k.u.l.%XM.}.OXM.!.W.W.W.k. .I R g.z.~.[.Q.#XC.n.M.].{.OX[.m.1.e.O.B.m.T ,.O.i.k.2.J.Y A } =.&.=.,.T 2.T g > @.,.n.b.M.M.m.y.r.f.h.r.@.O.",
"5 5 5 5 9 9 0 9 q e 0 t N ] ' t J ] N 9 t.c.q...] B 6 7 #.B t.'.g > =.,XW.<X+XM.x.n.W.U.k.h.l.U.U.N.Q.n.k.;X~.V.n.~.~.].].n.z.z.a.B.#Xf.x.V.T.}.n.U.&.C l.u.w.&.h.,.M.M.y.O.1.U O.z.~.~.k.r.e.1.k.g.r.1.",
"5 5 - - - - 2 2 9 0 t N N N J J ' [ N [ N +.] 0 b < b b * , =.c.< < m @X'.+X{.!.l.}.!.x.^.}.U.K.'.[.V.Q.C.+X~.C.V.C.C.Q.~.~.m.M.f.B.~.XXXXB.C.[.Q.T.8.=.<.p.p.<. .| @.,. .T ;.,.@.C.Q.z.k.k.r.r.h.y.f.h.",
"8 5 8 8 5 9 9 2 9 9 w t t N J ' [ J w ..[ q.] 7 , ; , ; ; B ..b { n @ 2.W.W.$X[.W.l.h.W.}.U.l.OX#XC.r.M.Q.XXQ.Q.~.~.~.Q.V.M.Q.C.XXB.B.B.#XXXV.M.T.n.n.n.p.l.x.U.r.,.r.f.1.1.e.r.z.XX;X~.z.q.,.r.g.m.M.m.",
"5 5 5 8 9 9 9 9 9 q w w N N ' ' +.L m t.{ @.H ..B { X...X.q.q.A ;. .s M '.Q.$XW.U.l.x.W.^.U.U.^.~.U.k.OX'.~.x.!.M.x.n.x.k.x.Q.~.OXB.g.V.XXZ.g.y.T.T.|.|.T.p.k.~.W.M.Q.~.C.M.M.b.+XM.z.M.~.~.M.,.p.k.M.M.",
"5 - - - 2 9 2 9 q w w w N ' [ ..$.#...g.0 0 m y.#.t.c.b.b.q.#.r. .,.,.h Q.'.!.x.x.k.l.!.!.E.W.x.U.U.M.@X}.!.n.!.Q.l.n.V.U.~.+X+X+X~.B.C.Z.z.1.f.n.'.|.|.U.u.x.[.[.`.'.[.~.Q.Q.M.m.g.z.M.y.y.V.Q.n.k.z.n.",
"- 5 5 - 5 9 9 9 q q 0 0 N J [ ..t.$.@.g.3 + 3 e.B U U X.,.X.| X. .,.u.a ;.%XM.R.W.<.,.W.'.k.k.R.!.M.2.x.W.%X[.~.W.n.l.n.W.}.+X[.OX!.V.Q.'.b.y.n.y.T.{.'.x.x.W.OX~.Q.~.C.z.k.M.m.z.z.].~. .H ,.m.M.n.k.n.",
"8 5 8 6 9 9 0 9 9 9 9 0 0 N ' [ O.T o.e.L H | r.< A X. .{ ;.q.;.;.;.l. .R +XQ.W.OXT.k.x.T.M.k.l.h.n.h.x.M.$X#XOXR.M.h.h.W.~.x.l.W.V.j.V.T.T.n.T.p.T.'.n.x.R.[.^.C.V.V.N.r.g.m.z.].M.n.C.M.k.y.1.y.z.n.k.",
"8 8 9 9 9 9 9 9 9 9 0 0 w N ' [ L K @.1.h.k.M.m. .w.U.M.w.u.k.,.2.2.[.!.Y r.M.W.~.<X+Xh.m.~.M.y.;.M.Q.Q.x.[.+X%X~.{.M.x.+XOXn.R.l.x.l.l.T.T.N.T.T.Q.T.n.x.R.Q.Q.Q.V.V.M.z.m.M.k.z.m.M.V.[.~.Q.C.w.y.k.h.",
"8 8 5 8 5 8 9 2 e 9 0 0 t J [ ..U U f.>.z.m.].n.M.r.n.'.M.k.,.h l.x.*X2Xk   l.!.h.+X'.n.Q.T.k.z.g.M.k.k.f.Q.^.+Xx.XXM.z.$X+Xx.[.h.E.W.n.n.n.N.`.'.N.n.T.Q.V.x.V.R.V.V.n.m.N.M.r.k.M.g.f.Q.[.W.~.n.h.y.u.",
"9 9 9 2 1 1 9 1 6 7 e e N ] { ] L ) ) f.W.~.U.W.T.Y.T.|.1Xp.m @.U.x.$X4Xh.d R ~.H M.;X{.m.n.N.Q.z.m.g.M.k.V.Q.#XV.[.M.C.~.V.M.,XXX>.B.B.z.B.V.m.].~.r.`.N.k.+Xk.Q.n.M.k.!.R.R.h.h.n.R.k.r.l.W.M.x.l.x.x.",
"9 9 1 2 2 r q 9 0 e N N A ....{ o.o.T >.R.x.l.!.|.'.l.U.|.W.k.~.y.l.XXOXC.V.~.C.[.'.Q.M.M.C.N.k.M.N.m.C.g.M.V.[.Z.oXV.~.C.m.g.+X#Xf.z.h.z.z.z.B.V.M.e.N.b.z.oX`.[.'.[.V.^.W.Q.k.2.r.x.k.k.x.n.f.y.y.h.h.",
"- 5 1 2 1 q 1 q 9 0 e t N ] { { o.) T @.x.r.2.!.T.}.|.Q.T.M.C.+XW.!.^.!.E.XX!.1.+X~.M.x.k.k.n.M.V.Q.V.~.m.V.V.Q.V.[.V.Q.C.M.k.XX.Xz.B.1.z.s.k.z.z.g.z.M.g.y.k.m.~.W.OXW.'.M.n.h.u.<.2.k.l.M.l.w.h.h.l.k.",
", 6 1 1 r 9 r r 9 0 n e B ] { { L T P R x.h.2.U.U. X<X+XT.k.M.~.R.K.W.^.W.R.V.x.k.M.W.n.p.r.k.Q.n.M.V.~.V.V.V.!.z.Q.B.Q.V.V.z.^.V.z.x.s.M.z.z.x.M.k.Q.C.l.b.y.M.M.U.[.W.~.h.k.h.U.2.,.y.h.k.x.h.;.<.2.y.",
"9 9 6 9 9 9 9 q 0 t J J B ] ....L ) L T h.x.h.l.!.T.!.!.W.Q.Q.[.R.V.R.E.R.x.x.W.j.U.R.x.x.x.l.u.k.k.U.R.W.R.R.W.x.W.R.^.M.x.k.M.x..XB.s.V.h.V.!.Q.z.!.W.R.Q.j.'.W.W.[.R.M.r.n.W.[.k.2.u.y.h.x.n. .;.u.k.",
"9 9 9 9 1 2 1 q 9 w w N ] ] ....T O.T T ;.u.h.y.l.l.n.T.^.V.V.OX.X.XK.h.x.j.s.j.h.x.x.h.l.M.l.r.k.h.V.x.W.x.M.E.x.R.Q.^.x.V.h.z.x.R.x.s.s.2.E.x.R.M.^.^.'.k.U X.OX^.~.n.l.2.M.OX!.n.l.x.h.h.k.x.,.r.k.M.",
"9 9 - 2 1 1 9 9 2 w J w B ] { ..T T ) o.R ,.k.u.<.U.U.T.!.z.r.XXR.R.s.>.x.E.x.x.>.h.j.h.u.9.h.l.j.h.x.x.R.h.x.x.h.M.R.^.j.R.x.h.x.x.z.r.>.>.XXj.x.U.~.}.!.,.a d ~.W.^.R.n.,.k.W.M.x.M.M.k.h.k.u.2.r.2.u.",
"5 6 - 2 r q 9 q q t J J ] ] ....) L 1.B.;.=.k.j.n.[.n.j.^.V.f.W..X.Xs.s..XE.x.E.x.h.h.k.i.2.9.u.z.s.x.h.V.h.x.x.h.M.R.^.h.V.j.s.x.j.j.s.s.f.OXs.k.R.U.!.!.u. .<.x.l.[.^.~.2.u.x.x.x.x.x.y.u.h.2.l.h.r.2.",
"6 6 - 2 1 9 9 9 2 2 [ ' N { ..=.$.e.f.f.2.>.2.x.j.n.u.k.n.k.x.V.s.s.z.x.K.E.x.x.x.j.x.K.l.j.h.u.x.2.h.R.R.x.x.k.K.M.x.R.W.R.z.f.x.!.x.x.x.x.XXx.M.Q.W.M.k.l.T.[.Q.l.k.M.!.R.k.r.l.r.k.u.u.r.=.,.;.u.k.2.",
", 6 2 2 1 9 9 9 9 2 m J K ..{ ..O.@.1.2.,.1.r.f.p.<.<.k.h.k.R.x.>.>.s.s.s.x.s.j.x.s.j.x.u.u.h.u.f.2.h.x.x.x.V.h.R.x.x.k.x.x.z.j.h.V.x.x.h.s.x.z.Q.W.W.n.k.k.N.Q.k.x.k.k.l.U.M.h.h.2.u.r.r.u.;.2.r.r.u.r.",
"5 6 - 1 1 2 1 9 q 2 t N ] ..| t.o.@.1.,.<.r.h.r.i.k.>.h.l.x.W.x.x.s.x.s.h.x.s.j.x.s.h.x.h.y.k.h.2.2.k.f.f.M.n.r.x.z.k.k.k.h.f.f.f.x.x.k.f.r.z.z.M.M.n.g.y.r.p.n.u.x.l.2.2.k.x.l.r.;.2.,.2.r.<.2.h.r.,.2.",
"- - - - 1 1 9 1 q w N m ] ] { b.o.o.@.2.h.h.u.h.k.^.l.h.R.x.k.M.K.x.x.s.h.x.s.x.x.s.f.j.i.u.k.p.f.r.y.f.e.f.y.@.f.f.g.f.f.1.1.@.f.z.k.g.e.1.z.f.g.r.q.,.q.,.q.w.<.r.r.;. .,.u.y.2.&.<.,.,.2.;.r.u.<.;.=.",
"5 - 2 = 1 1 9 r 9 9 w w ] ] B t.| U  .y.b.y.2.h.h.W.x.x.z.f.z.z.B.s.h.2.2.s.2.h.k.2.2.r.<.w.r.<.r.@.q.e.,. .X. ... .@.@.O.| | U e.f.q.q.q.O.,.@.,.X...U { { | |  .T R R  . .;.2.r.;.<.,.,.2.;.r.,.r.2.=.",
", , 1 1 1 2 1 1 q , 3 w ..#.B B { U @.g.n.y.r.u.x.s.U.}.s.s.R.s.x.x.z.>.>.f.1.r.f.,.;.,.O.=.,.@.O.L { X...K L { K U ] K L { | ..@.1.o.O.O.U | M { ] K m b b B M P A P  .,.;.<.u.h.<.2.2.<.2.,.r.2.k.h.,.",
"6 6 2 1 1 1 2 9 0 9 N N ] =.] < H o.w.g.k.l.i.q.z.x.B..XXXs.z.x..Xz.z.f.f.f.1.2.,. .| X.T { } K H m N H m m B m K K B K K U { { [ | H L K m B 0 m m b 0 0 0 N B H Y =.,.<.u.h.k.h.2.u.2.r.r.<.r.h.x.x.u.",
"8 8 1 2 1 r 2 q 9 6 ] b 6 J K b 0 O.t.,.w.k.u. .2.#Xs.z.$Xh.P !.B.z.B.s.1.e.O.@.T G H K B B B b 0 w w 0 , 0 N , N N N N J N N w 3 m b m w 2 b 3 , 3 0 b 3 b N ] P X.2.;.;.r.h.y.k.y.u.y.u.h.2.u.h.h.h.k.",
"1 1 2 8 9 2 , , 3 N ] , n 7 n B : G 1.g.t.f.n.M.r.n.U.W.+XR.f.f.m.g.1.t.q...K ] N N t e e 9 6 9 9 1 1 1 1 1 1 2 q 9 0 0 e 0 7 6 2 0 3 3 2 4 2 : 4 4 m N B H L { @.;.,.r.r.e.1.,.r.m.f.,.m.z.w.f.k.k.f.;.",
"1 1 1 1 1 9 2 9 0 N ] n { N { A 3 G q.g.1.e.b.M.n.T.Q.T.^.V.f.1.g.e.@.@.+.K N N e 0 e e r 9 8 8 8 8 8 8 1 r 9 9 1 9 6 e 6 7 6 7 : , 2 0 w w m G m H U | o.O.,.,.r.g.g.g.f.r.f.f.f.M.r.,.k.k.1.r.k.g.f.,.",
"1 1 = 2 2 9 0 w N 0 B B ] A ....: J f.f. .,.h.k.T.Q.T.N.R.h.,.O.@.+.....] b b b 0 6 9 9 5 6 8 5 1 1 8 1 1 1 2 9 = , , 6 6 7 0 0 w 0 w K H G [ ..[ o.1.f.r.g.f.f.k.M.M.m.z.m.M.m.k.m.w.O.e.2.=.1.1.r.2.,.",
"1 1 1 1 6 q 0 0 ] , 3 7 b s { { 0 #.v.m.e.y.M.b.n.N.k.h.f.1. .R | U K H m 3 , 0 , 6 6 6 5 r 9 - 1 1 1 1 2 1 2 2 , 2 0 0 0 0 0 n K J L o...{ ..1.1.f.g.k.z.g.r.1.t.z.h.g.z.n.n.g.g.k.e. .,.O. .@.O.,.,.,.",
"8 8 8 1 9 9 0 0 ] ; ; 6 7 ; n b 3 | g.g.q.r.p.q.h.r.,.,. .| T L K H 4 j 0 4 , , , 3 9 , - 9 9 , 1 1 = 1 2 2 2 3 0 b N N n N B ] L K | @.q.@.t.g.e.f.k.k.k.f.,.;. . .=.,.r.z.r.,.r.w.,.O.X.T T  .R O.,.1.",
"8 8 1 8 2 2 9 9 ] 6 n N B 7 N b 3 J +.@.{  .X.} ,. . .Y H H G j H b 3 3 b 0 b < 3 0 0 6 6 q e , q 4 4 4 4 4 b N K K B K ] { | | @.@.1.e.f.f.k.z.e.r.r.f.f.2.;. .T T | ,.e.r.,. .O.O.O.O.| U U Y T R ;.r.",
"1 1 8 8 9 9 6 9 t e B N ..A ] ] H J | X.{ ..X.} } B T T n k L j M n b b m m m m N N N m w N N 0 G G G G H L { L +. ... .X.,.=.@.w.f.f.f.g.z.h.1.,.,.<.2.1.;.R T O.O.O.w.1.O.|  .| U  . .U P U | L T @.2.",
"- 1 1 8 9 9 9 9 6 e 7 6 ..N N ] J w N J M B U B B n A U m G U m M B K H B B K K ] ..] ] N ] ] m L G L L |  .O.@.y.e.@.q.r.y.r.w.O.2.1.1.r.k.f.;.,.,.;.;.;.R U H ,.@.,.e.O.M n T U H U | H M |  .H P o.1.",
"5 5 5 5 6 r e 6 6 ; 6 6 7 0 b B w w m b N M B B n M P T M M L L  .| P X.@.{ ..{ | @.#.| H ] ..] | | T |  .@.,.r.r.,.1.f.u.2.r.k.X.<.,.;.2.u.r.;.,.<.r.w.X.Y }  .q.;. .| U H K { U U T T { {  . .G G T $.",
"8 8 5 5 6 9 9 e 6 6 ; 6 , , e N 0 0 4 N K U P B M M ..O.| ..@.O.O. .| ,.q.X.+.O...#.q...[ | X...O. .O.@.@.X.,.r.f.w.e.r.y.w.w.u.;.<.<.,.2.r.2.,.;.2.r.w.=.Y U { @.O. . .T P P { | | { T U T T { L L O.e.",
"8 8 e 6 6 r e 9 6 5 ; - = - 7 b t w t ] [ { B b B U @.e.@.@.@.o.O.O. .e.w.@.,.,. .@.@. ...O.@. .1.O.O.,.,.,.e.k.k.r.1.r.r.q.,.<.;.&.&.,.,.;.=.O.;.,.,.;. .T { U X.| ....{ U K ] { { { K U B B H H H O.f.",
"8 9 8 8 8 8 6 r 6 6 6 ; , , 6 0 N N N ] ....{ K X.X.t.f.@.| | L @.@. .e.e. .@.X. .O.O.| |  . .U y.O. .,.r.r.k.Q.k.e.,.1.e.,.,.;.,. .R ;.=.R R  . .X. . .{ T { A { ] U U ] H B K H H B B B m B M G j L @.",
"5 5 5 5 6 8 9 9 6 6 q 9 6 9 9 9 e N ' [ { ..X.#.y.q.y.t.O.| | | ,.,.@.e.1.|  . .O.;. .R  . . .T r.X.X.w.k.k.b.b.y.,.X.=.;.X.X. .,. . .=.=.{ { X.X.@.+. .{ | { B L { { K B B H K H B H B M B M N M 4 H  .",
"5 5 5 5 5 5 5 9 6 e e e 0 e 0 0 N ] ..] ] ] | X.X.X.@.X.{ { +.@.$.,.X.e.,.U  .| ,.,.O.X. . . . .1.;.,.f.b.p.q. .,.X. .{  . . .{ ;.X.&.&. . . .@.;.q.#.X.{ ..] B { { { B H { { { | { { { K H N M H m K | ",
"5 5 5 5 5 8 5 8 8 e e e 0 e 0 q J ' ' J N b B B B B { { L ..$.$.,.,. .,.;.U T  .,.@.O.R R  .=.;.,.q.r.y.r.q.} B T { { U U { { Y X.=.X. .}  .X.=.X.q.#...[ ..] B B B { U U | ..{  .....| { ] L H G m L T ",
"5 5 5 5 5 5 9 6 5 r 0 9 9 e t e 7 7 e b b N B B B B ] { G | @.q.,.@. .@. .M T T O. .R U U U  .=.X.w.y.q.X. .{ B B P B B B U { { Y  .X.U U  .X.X.] ..X.] B { ] ] b B L K { |  .| | | Y | | | { { G j G U ",
"5 5 5 5 5 8 8 6 9 e 0 9 9 0 w 0 9 0 N m 3 3 m j B B ..H  .U 1.,.} ,.,. .,.H o.O.U U o.U X. .=.Y  .{ @.,.@.{ L m K J ] J { N #.X.q.;.L @.@.{ e.U m @...[ L m J H J N H B  .,.U R X.T  . . .,.] B m m M H ",
"5 5 5 5 5 8 9 6 9 q 0 0 3 w w t N m ] B 0 m J N K H ....@...@.O. .,.,.X.,.B T | U L @.U ;.| @. . . .@.@.{ B K H L J K J ..B #.X.@.,.U ,.,.U $.L N +...| L m K L K J H H O.,.T  . .R X. . .@.A B m N N H ",
"5 5 5 5 6 9 6 9 , 9 0 0 0 0 t N ] ] ] B N K ] N K { q.O.1.| O... .,.,.@.q.N K K [ U @.L ;. .,. . . .X.X.N b K [ [ ] H G ..N X... .@...e.@.U O.L m @.| | { J K ' ' K K K O.1. .,. .Y ;. .X.X.{ B m B B B "
};
