/* XPM */
static char *_920428038fd4415f402bd99308706a5kBFeoH6uyuykeBcb[] = {
/* columns rows colors chars-per-pixel */
"50 50 36 1 ",
"  c #D9C19F",
". c #DDC5A4",
"X c #DEC8A6",
"o c #DDC6A9",
"O c #DFC9A9",
"+ c #E0C6A4",
"@ c #E2CAA6",
"# c #E1C7A9",
"$ c #E4CDAC",
"% c #E8CEAC",
"& c #E6D0AE",
"* c #E8D0AE",
"= c #E4CFB1",
"- c #E8CFB1",
"; c #E6D1B3",
": c #E9D3B4",
"> c #ECD8B7",
", c #E6D4BB",
"< c #EAD6BB",
"1 c #E7D9BF",
"2 c #EBD9BD",
"3 c #E7D7C1",
"4 c #E8D7C1",
"5 c #E7DAC3",
"6 c #ECDBC3",
"7 c #EDDECA",
"8 c #F0DDC5",
"9 c #F0DFCB",
"0 c #EFE1C7",
"q c #EEE1CC",
"w c #F1E2CD",
"e c #EEE3D2",
"r c #F2E5D3",
"t c #F3E8D6",
"y c #F3E6D9",
"u c #F4E9DA",
/* pixels */
"=;===;=7,:;:7:>>,>:18><;82:<:<>;62:,;q;;;;;==5====",
"OO$$=O$5:$;;q;&;;;*,8*;;62&;::;;6<&;;6;$=$OO$5OOoo",
"7777777eq07wyqq0qwqwu0wwtt8w00qqtr7q7y7770077y6755",
"5e5547t567776wr077tw668776u6700t668772qe564e745,53",
"$1$$$;1$$&-$$>2&&*6:&&**&*6*;&:6$-&$;#>1O$X1;o$ooo",
"4r5527r467767re677tq700606t076qt6672867w561e524433",
"7775qqqtwqqwu0wwwwwwuwwwttqwwwq0trqwqyqqq770qy55q7",
"$O$$$$&4:;$&7&:****:2*:*2>&:**;&6<$-$8$$$$$$$5@$Oo",
",,1<<1:e4246e2226828w882rw>66222w826>r6<122,,e,,,,",
"qyeqwrtewrrrqturrrurrrwwrwurwruurwrw9rrrwqqtee77qq",
"$6$=$<4&&;&;*24:;:8>:::>;;8:;*>6%:-:-%12$$O4;$O$oo",
",9,=;60;<<><:7q>2>w2>>>>>>w2>>>w;<>:1:66;:;63=,===",
"eeeeeyrutrrruyyrrruturrruutrtrruurrrrutteteeeteqeq",
"O=;;;;&6<&::7<:::::>0:>%22*:;;>*62::-8;;=-=$;7$$=O",
"===;;;=7<::>w:>>:>:20:>*08:::>:%72-:;9;-;-;==6=$==",
"eyeeryyyrrtrtuuwrtururtwuuurrttrrttettrrrreteyqeee",
",7;-:47;:><>:68>>>9>>>>>::w>>>29::>::;26=,;61$-===",
"=4=-$26$:--:%6>:>;9:::::**8*--;8$*;;;$<6&$$2,OO$OO",
"qyeertyrrtrrtyuwrrurtwrwrwurrrwurrwrwrrywwwyeeq7q7",
"1;<<>1>w6126r>2222>8w22>w8>2<>>>w6><>w2>1<4;,e;,,3",
"$=$=$-$6-%;;8***%-*>8&**2>$*%*%$2:%%$6$*$%$#$6+Ooo",
"77999wwyrwwwurrwwwwwrwwwurwwwww8ur0wquqq9w9e9t7777",
"4r4629t266662ww282r8228228r28>7r2222227w14,96,,2,,",
"$4#$#,2%-$;&*2>@-%8:*;*%$%6*%%*2@**&%@;:@$@>-#Oo+o",
"6e7769r787786rt788rw9086w6r0889r686767wr672rq66144",
"5767766rw08qu789w08wu678wr787088tw676r7626766e5454",
"O$$&-$$6;%$%6**%%**;2**%>>$$$%@&><@%@6%$$@#$$,oo+o",
"2,54662r9268t22626>8r282ww26226>w8662t22221,1e,,1<",
"9y9w7rywqwwwwrr9wwuw999ww0rww8wt9wwww9rtq07ee57777",
"$6###:2$&$$;%2>%;*8:%-%%%%8%%%;2#%$$$#:>@$X1;oXXo.",
";7,,,69<1<<><79>>>w2>>2>>>w>>>2w:>>>>,47:4:73=,===",
"qerw9rrtrr9rytrrrrwruwrwryrrrrwwrrerwurer79qey7e77",
"OO$$---5,--=7$;*;*%,6%%%2>#:*%%@8<%%$6*$$$OO=5OOOo",
"$====-=7<;:<w;:::>>>8;::86-::;::2>-;;9;*:&-$;6=$o=",
"eyeqeryrrrrrururrrurywrwrrrrrrtrurrrerrtwqqtee77e7",
"O5==-15-::-;*66*:;9::::::-9:--:6%;-$-%14$=$5,o=O=o",
"O5$==,4$;&$;*42*-%7>---%-%7;%->8$*%;-%:>$$$5;oOOoo",
"eyqeqrryqrrrttrrrryrtrrrrttrwrrrrrrwrrur9q7eee7q7e",
"====;;;92:<<q:<>>>:>7;>:66-:::::72;;-w;:;;-=;6===o",
"oO$$=$$4=--%7$%--;%;8@*@<>%%$$$$>:#%#6$#+$$$O,oooo",
"7q79qqeyrr9ryreerwrru9r9yrww9rw9tr999r7e777q7e7775",
",9,,,67<<162>99<2>r2222>>>r<,:6w:<<><,47:,-74-;,=,",
"o3###=<#$#%$#<<%%$6;%%#%$$6$%#-6##@@%#-,.@o,Oo..  ",
"5e757rr797999rr8w9rw89w999u8989y8w77687r472e753344",
"3,,446<r8666r4666667r662ww468622r712196><<1,,7,,,,",
".o##$##6$$#$4%%$$%#*6@%#<:%$$%#@>-@##<#+++..o,..  ",
"3,34454r7466r7868669r266r9>6646699866e64<4<<1e,,,,",
"5y5547r677677wr798r9896768r7669r6466647e241e5335,3",
"o,O##,,#$$=$$4<$-$4------=4%$$=6##$@#+=,o+.;O...  ",
"=4o==;4$===--44=--8<------7-=--6-;-%$$:,#$#1=#oooo"
};
